<svg width="174" height="40" viewBox="0 0 174 40" fill="none" xmlns="http://www.w3.org/2000/svg">
<rect width="174" height="40" rx="8" fill="url(#paint0_linear_12_2)"/>
<rect x="1.07143" y="1.07143" width="171.857" height="37.8571" rx="6.92857" stroke="white" stroke-opacity="0.15" stroke-width="2.14286"/>
<g filter="url(#filter0_d_12_2)">
<path d="M21.4998 15.1664H20.8334V9H12.5006C11.671 9 11 9.671 11 10.4997V29.5003C11 30.329 11.671 31 12.4997 31H25.5003C26.329 31 27 30.329 27 29.5003V15.1664H21.4998ZM21.0002 24.7502H14.499V23.4998H20.9984V24.7502H21.0002ZM23.5001 21.7499H14.4999V20.4996H23.5001V21.7499ZM23.5001 18.7497H14.4999V17.5002H23.5001V18.7497ZM21.4998 14.5H27L21.4998 9V14.5Z" fill="white"/>
</g>
<g filter="url(#filter1_d_12_2)">
<path d="M37.3583 26.5V14.1364H41.7653C42.7231 14.1364 43.518 14.3014 44.1499 14.6314C44.7857 14.9614 45.2607 15.4182 45.5746 16.0018C45.8885 16.5813 46.0455 17.2514 46.0455 18.0121C46.0455 18.7687 45.8865 19.4348 45.5685 20.0103C45.2546 20.5818 44.7797 21.0265 44.1438 21.3445C43.512 21.6624 42.7171 21.8214 41.7592 21.8214H38.4208V20.2156H41.5902C42.1939 20.2156 42.6849 20.129 43.0632 19.956C43.4455 19.7829 43.7253 19.5314 43.9023 19.2013C44.0794 18.8713 44.168 18.4749 44.168 18.0121C44.168 17.5452 44.0774 17.1407 43.8963 16.7986C43.7192 16.4566 43.4395 16.195 43.0572 16.0138C42.6789 15.8287 42.1818 15.7361 41.566 15.7361H39.2237V26.5H37.3583ZM43.4616 20.9219L46.5163 26.5H44.3913L41.397 20.9219H43.4616ZM52.0507 26.6871C51.1371 26.6871 50.3503 26.4919 49.6902 26.1016C49.0342 25.7071 48.5271 25.1538 48.1689 24.4414C47.8148 23.725 47.6377 22.8859 47.6377 21.924C47.6377 20.9742 47.8148 20.1371 48.1689 19.4126C48.5271 18.6882 49.0262 18.1227 49.6661 17.7163C50.31 17.3098 51.0626 17.1065 51.9239 17.1065C52.4471 17.1065 52.9542 17.1931 53.4452 17.3661C53.9362 17.5392 54.3769 17.8108 54.7673 18.1811C55.1577 18.5514 55.4656 19.0323 55.691 19.6239C55.9163 20.2115 56.029 20.9259 56.029 21.767V22.407H48.6579V21.0547H54.2602C54.2602 20.5798 54.1636 20.1592 53.9704 19.793C53.7772 19.4227 53.5056 19.1309 53.1554 18.9176C52.8093 18.7043 52.4028 18.5977 51.936 18.5977C51.4289 18.5977 50.9862 18.7224 50.6079 18.9719C50.2336 19.2174 49.9438 19.5394 49.7385 19.9379C49.5373 20.3323 49.4367 20.7609 49.4367 21.2237V22.2802C49.4367 22.9 49.5454 23.4272 49.7627 23.8619C49.984 24.2965 50.2919 24.6285 50.6863 24.8579C51.0808 25.0833 51.5416 25.196 52.0688 25.196C52.4109 25.196 52.7228 25.1477 53.0045 25.0511C53.2862 24.9505 53.5297 24.8016 53.735 24.6044C53.9402 24.4072 54.0972 24.1637 54.2059 23.8739L55.9143 24.1818C55.7775 24.6849 55.532 25.1256 55.1778 25.5039C54.8277 25.8782 54.387 26.17 53.8557 26.3793C53.3285 26.5845 52.7268 26.6871 52.0507 26.6871ZM60.7303 26.7053C60.1427 26.7053 59.6114 26.5966 59.1365 26.3793C58.6616 26.1579 58.2853 25.8379 58.0076 25.4194C57.734 25.0008 57.5971 24.4877 57.5971 23.88C57.5971 23.3568 57.6977 22.9261 57.899 22.5881C58.1002 22.25 58.3719 21.9824 58.7139 21.7852C59.056 21.5879 59.4384 21.439 59.861 21.3384C60.2836 21.2378 60.7142 21.1613 61.1529 21.109C61.7083 21.0446 62.159 20.9923 62.5051 20.9521C62.8513 20.9078 63.1028 20.8374 63.2598 20.7408C63.4167 20.6442 63.4952 20.4872 63.4952 20.2699V20.2276C63.4952 19.7004 63.3463 19.2919 63.0485 19.0021C62.7547 18.7124 62.316 18.5675 61.7324 18.5675C61.1247 18.5675 60.6458 18.7023 60.2956 18.9719C59.9495 19.2376 59.71 19.5334 59.5772 19.8594L57.8809 19.473C58.0821 18.9096 58.3759 18.4548 58.7622 18.1087C59.1526 17.7585 59.6014 17.505 60.1085 17.348C60.6156 17.187 61.1488 17.1065 61.7083 17.1065C62.0785 17.1065 62.4709 17.1508 62.8855 17.2393C63.304 17.3239 63.6944 17.4808 64.0566 17.7102C64.4229 17.9396 64.7227 18.2676 64.9561 18.6942C65.1896 19.1168 65.3063 19.6662 65.3063 20.3423V26.5H63.5435V25.2322H63.4711C63.3543 25.4657 63.1793 25.6951 62.9458 25.9204C62.7124 26.1458 62.4126 26.333 62.0463 26.4819C61.6801 26.6308 61.2414 26.7053 60.7303 26.7053ZM61.1227 25.2564C61.6217 25.2564 62.0483 25.1578 62.4025 24.9606C62.7607 24.7634 63.0324 24.5058 63.2175 24.1879C63.4067 23.8659 63.5012 23.5218 63.5012 23.1555V21.9602C63.4368 22.0246 63.3121 22.085 63.1269 22.1413C62.9458 22.1937 62.7386 22.2399 62.5051 22.2802C62.2717 22.3164 62.0443 22.3506 61.823 22.3828C61.6016 22.411 61.4165 22.4351 61.2676 22.4553C60.9174 22.4995 60.5975 22.574 60.3077 22.6786C60.022 22.7833 59.7925 22.9342 59.6195 23.1314C59.4505 23.3246 59.3659 23.5821 59.3659 23.9041C59.3659 24.3508 59.5309 24.6889 59.861 24.9183C60.191 25.1437 60.6116 25.2564 61.1227 25.2564ZM71.1817 26.6811C70.4331 26.6811 69.7651 26.4899 69.1775 26.1076C68.5939 25.7212 68.1351 25.1719 67.801 24.4595C67.471 23.7431 67.306 22.8839 67.306 21.8817C67.306 20.8796 67.473 20.0224 67.8071 19.31C68.1451 18.5977 68.608 18.0523 69.1956 17.674C69.7832 17.2957 70.4492 17.1065 71.1938 17.1065C71.7693 17.1065 72.2321 17.2031 72.5823 17.3963C72.9365 17.5855 73.2101 17.8068 73.4033 18.0604C73.6005 18.3139 73.7535 18.5373 73.8621 18.7305H73.9708V14.1364H75.7758V26.5H74.013V25.0572H73.8621C73.7535 25.2544 73.5965 25.4798 73.3912 25.7333C73.19 25.9869 72.9123 26.2082 72.5581 26.3974C72.204 26.5865 71.7452 26.6811 71.1817 26.6811ZM71.5802 25.1417C72.0993 25.1417 72.538 25.0048 72.8962 24.7312C73.2584 24.4535 73.5321 24.0691 73.7172 23.5781C73.9064 23.0871 74.001 22.5156 74.001 21.8636C74.001 21.2197 73.9084 20.6562 73.7233 20.1733C73.5381 19.6903 73.2665 19.314 72.9083 19.0444C72.5501 18.7747 72.1074 18.6399 71.5802 18.6399C71.0368 18.6399 70.5841 18.7808 70.2218 19.0625C69.8596 19.3442 69.586 19.7286 69.4008 20.2156C69.2197 20.7025 69.1292 21.2519 69.1292 21.8636C69.1292 22.4834 69.2217 23.0408 69.4069 23.5359C69.592 24.0309 69.8657 24.4233 70.2279 24.7131C70.5941 24.9988 71.0449 25.1417 71.5802 25.1417ZM87.1796 17.2273V18.6761H82.1146V17.2273H87.1796ZM83.4729 15.0057H85.278V23.7773C85.278 24.1275 85.3303 24.3911 85.4349 24.5682C85.5396 24.7412 85.6744 24.86 85.8394 24.9244C86.0084 24.9847 86.1915 25.0149 86.3887 25.0149C86.5336 25.0149 86.6604 25.0048 86.7691 24.9847C86.8777 24.9646 86.9623 24.9485 87.0226 24.9364L87.3486 26.4276C87.244 26.4678 87.0951 26.508 86.9019 26.5483C86.7087 26.5926 86.4672 26.6167 86.1775 26.6207C85.7025 26.6288 85.2598 26.5443 84.8493 26.3672C84.4388 26.1901 84.1068 25.9164 83.8532 25.5462C83.5997 25.1759 83.4729 24.7111 83.4729 24.1516V15.0057ZM91.1806 20.9943V26.5H89.3755V14.1364H91.1564V18.7365H91.2711C91.4884 18.2374 91.8205 17.841 92.2672 17.5472C92.7139 17.2534 93.2975 17.1065 94.0179 17.1065C94.6538 17.1065 95.2092 17.2373 95.6841 17.4989C96.163 17.7605 96.5333 18.1509 96.7949 18.6701C97.0605 19.1852 97.1933 19.8292 97.1933 20.6019V26.5H95.3883V20.8192C95.3883 20.1391 95.2132 19.6119 94.8631 19.2376C94.5129 18.8593 94.026 18.6701 93.4021 18.6701C92.9755 18.6701 92.5932 18.7607 92.2551 18.9418C91.9211 19.1229 91.6575 19.3885 91.4643 19.7386C91.2751 20.0848 91.1806 20.5033 91.1806 20.9943ZM103.599 26.6871C102.685 26.6871 101.898 26.4919 101.238 26.1016C100.582 25.7071 100.075 25.1538 99.7168 24.4414C99.3626 23.725 99.1855 22.8859 99.1855 21.924C99.1855 20.9742 99.3626 20.1371 99.7168 19.4126C100.075 18.6882 100.574 18.1227 101.214 17.7163C101.858 17.3098 102.61 17.1065 103.472 17.1065C103.995 17.1065 104.502 17.1931 104.993 17.3661C105.484 17.5392 105.925 17.8108 106.315 18.1811C106.706 18.5514 107.013 19.0323 107.239 19.6239C107.464 20.2115 107.577 20.9259 107.577 21.767V22.407H100.206V21.0547H105.808C105.808 20.5798 105.711 20.1592 105.518 19.793C105.325 19.4227 105.053 19.1309 104.703 18.9176C104.357 18.7043 103.951 18.5977 103.484 18.5977C102.977 18.5977 102.534 18.7224 102.156 18.9719C101.781 19.2174 101.492 19.5394 101.286 19.9379C101.085 20.3323 100.985 20.7609 100.985 21.2237V22.2802C100.985 22.9 101.093 23.4272 101.311 23.8619C101.532 24.2965 101.84 24.6285 102.234 24.8579C102.629 25.0833 103.089 25.196 103.617 25.196C103.959 25.196 104.271 25.1477 104.552 25.0511C104.834 24.9505 105.078 24.8016 105.283 24.6044C105.488 24.4072 105.645 24.1637 105.754 23.8739L107.462 24.1818C107.325 24.6849 107.08 25.1256 106.726 25.5039C106.376 25.8782 105.935 26.17 105.404 26.3793C104.876 26.5845 104.275 26.6871 103.599 26.6871Z" fill="#E8E8E8"/>
<path d="M118.958 14.1364H121.904V22.6847C121.9 23.4856 121.709 24.1858 121.331 24.7855C120.953 25.3812 120.429 25.844 119.761 26.174C119.097 26.504 118.329 26.669 117.455 26.669C116.682 26.669 115.98 26.5342 115.348 26.2646C114.72 25.9949 114.219 25.5763 113.845 25.0089C113.475 24.4414 113.292 23.715 113.296 22.8295H116.272C116.284 23.1475 116.344 23.4191 116.453 23.6445C116.566 23.8659 116.721 24.0329 116.918 24.1456C117.115 24.2583 117.351 24.3146 117.624 24.3146C117.91 24.3146 118.151 24.2543 118.349 24.1335C118.546 24.0088 118.695 23.8256 118.795 23.5842C118.9 23.3427 118.954 23.0428 118.958 22.6847V14.1364ZM128.35 26.5H123.78V14.1364H128.344C129.604 14.1364 130.689 14.3839 131.598 14.8789C132.512 15.3699 133.216 16.0782 133.711 17.0039C134.206 17.9255 134.454 19.0283 134.454 20.3121C134.454 21.6 134.206 22.7068 133.711 23.6325C133.22 24.5581 132.518 25.2685 131.604 25.7635C130.691 26.2545 129.606 26.5 128.35 26.5ZM126.769 23.9524H128.236C128.928 23.9524 129.513 23.8357 129.992 23.6023C130.475 23.3648 130.84 22.9805 131.085 22.4492C131.335 21.9139 131.459 21.2016 131.459 20.3121C131.459 19.4227 131.335 18.7144 131.085 18.1871C130.836 17.6559 130.467 17.2736 129.98 17.0401C129.497 16.8027 128.902 16.6839 128.193 16.6839H126.769V23.9524ZM140.527 26.6751C139.553 26.6751 138.716 26.4758 138.015 26.0774C137.319 25.6749 136.782 25.1155 136.404 24.3991C136.029 23.6787 135.842 22.8436 135.842 21.8938C135.842 20.94 136.029 20.1049 136.404 19.3885C136.782 18.6681 137.319 18.1087 138.015 17.7102C138.716 17.3078 139.553 17.1065 140.527 17.1065C141.501 17.1065 142.336 17.3078 143.032 17.7102C143.732 18.1087 144.27 18.6681 144.644 19.3885C145.022 20.1049 145.212 20.94 145.212 21.8938C145.212 22.8436 145.022 23.6787 144.644 24.3991C144.27 25.1155 143.732 25.6749 143.032 26.0774C142.336 26.4758 141.501 26.6751 140.527 26.6751ZM140.545 24.4474C140.899 24.4474 141.199 24.3388 141.444 24.1214C141.69 23.9041 141.877 23.6023 142.006 23.2159C142.139 22.8295 142.205 22.3828 142.205 21.8757C142.205 21.3606 142.139 20.9098 142.006 20.5234C141.877 20.1371 141.69 19.8352 141.444 19.6179C141.199 19.4006 140.899 19.2919 140.545 19.2919C140.179 19.2919 139.869 19.4006 139.615 19.6179C139.366 19.8352 139.175 20.1371 139.042 20.5234C138.913 20.9098 138.849 21.3606 138.849 21.8757C138.849 22.3828 138.913 22.8295 139.042 23.2159C139.175 23.6023 139.366 23.9041 139.615 24.1214C139.869 24.3388 140.179 24.4474 140.545 24.4474ZM151.052 26.6751C150.074 26.6751 149.235 26.4738 148.535 26.0714C147.839 25.6689 147.303 25.1095 146.929 24.3931C146.555 23.6727 146.368 22.8396 146.368 21.8938C146.368 20.944 146.555 20.1109 146.929 19.3945C147.307 18.6741 147.845 18.1127 148.541 17.7102C149.241 17.3078 150.076 17.1065 151.046 17.1065C151.903 17.1065 152.65 17.2615 153.286 17.5714C153.926 17.8813 154.425 18.32 154.783 18.8874C155.145 19.4509 155.336 20.1129 155.357 20.8736H152.598C152.541 20.3987 152.38 20.0264 152.115 19.7567C151.853 19.4871 151.511 19.3523 151.088 19.3523C150.746 19.3523 150.447 19.4489 150.189 19.642C149.931 19.8312 149.73 20.1129 149.585 20.4872C149.444 20.8575 149.374 21.3163 149.374 21.8636C149.374 22.411 149.444 22.8738 149.585 23.2521C149.73 23.6264 149.931 23.9102 150.189 24.1033C150.447 24.2925 150.746 24.3871 151.088 24.3871C151.362 24.3871 151.604 24.3287 151.813 24.212C152.026 24.0953 152.201 23.9242 152.338 23.6989C152.475 23.4695 152.561 23.1918 152.598 22.8658H155.357C155.328 23.6304 155.137 24.2985 154.783 24.87C154.433 25.4415 153.94 25.8862 153.304 26.2042C152.672 26.5181 151.922 26.6751 151.052 26.6751ZM164.963 20.0586L162.252 20.131C162.224 19.9379 162.148 19.7668 162.023 19.6179C161.898 19.465 161.735 19.3462 161.534 19.2617C161.337 19.1732 161.107 19.1289 160.846 19.1289C160.504 19.1289 160.212 19.1973 159.97 19.3342C159.733 19.471 159.616 19.6561 159.62 19.8896C159.616 20.0707 159.689 20.2276 159.837 20.3604C159.99 20.4932 160.262 20.5999 160.652 20.6804L162.439 21.0185C163.365 21.1955 164.053 21.4893 164.504 21.8999C164.959 22.3104 165.188 22.8537 165.192 23.5298C165.188 24.1657 164.999 24.7191 164.625 25.19C164.255 25.6609 163.747 26.0271 163.103 26.2887C162.46 26.5463 161.723 26.6751 160.894 26.6751C159.57 26.6751 158.525 26.4034 157.761 25.8601C157 25.3127 156.565 24.5803 156.457 23.6626L159.373 23.5902C159.437 23.9283 159.604 24.1858 159.874 24.3629C160.143 24.54 160.487 24.6285 160.906 24.6285C161.284 24.6285 161.592 24.5581 161.83 24.4173C162.067 24.2764 162.188 24.0892 162.192 23.8558C162.188 23.6465 162.095 23.4795 161.914 23.3548C161.733 23.226 161.449 23.1254 161.063 23.0529L159.445 22.745C158.515 22.576 157.823 22.2641 157.368 21.8093C156.914 21.3505 156.688 20.7669 156.692 20.0586C156.688 19.4388 156.853 18.9096 157.187 18.4709C157.521 18.0282 157.996 17.6901 158.612 17.4567C159.228 17.2232 159.954 17.1065 160.791 17.1065C162.047 17.1065 163.037 17.3701 163.761 17.8974C164.486 18.4206 164.886 19.141 164.963 20.0586Z" fill="white"/>
</g>
<defs>
<filter id="filter0_d_12_2" x="2.39972" y="0.39972" width="33.2006" height="39.2006" filterUnits="userSpaceOnUse" color-interpolation-filters="sRGB">
<feFlood flood-opacity="0" result="BackgroundImageFix"/>
<feColorMatrix in="SourceAlpha" type="matrix" values="0 0 0 0 0 0 0 0 0 0 0 0 0 0 0 0 0 0 127 0" result="hardAlpha"/>
<feOffset/>
<feGaussianBlur stdDeviation="2.80014"/>
<feComposite in2="hardAlpha" operator="out"/>
<feColorMatrix type="matrix" values="0 0 0 0 0 0 0 0 0 0 0 0 0 0 0 0 0 0 0.25 0"/>
<feBlend mode="normal" in2="BackgroundImageFix" result="effect1_dropShadow_12_2"/>
<feBlend mode="normal" in="SourceGraphic" in2="effect1_dropShadow_12_2" result="shape"/>
</filter>
<filter id="filter1_d_12_2" x="30.2857" y="3.78571" width="141.429" height="32.4286" filterUnits="userSpaceOnUse" color-interpolation-filters="sRGB">
<feFlood flood-opacity="0" result="BackgroundImageFix"/>
<feColorMatrix in="SourceAlpha" type="matrix" values="0 0 0 0 0 0 0 0 0 0 0 0 0 0 0 0 0 0 127 0" result="hardAlpha"/>
<feOffset/>
<feGaussianBlur stdDeviation="2.85714"/>
<feComposite in2="hardAlpha" operator="out"/>
<feColorMatrix type="matrix" values="0 0 0 0 0 0 0 0 0 0 0 0 0 0 0 0 0 0 0.25 0"/>
<feBlend mode="normal" in2="BackgroundImageFix" result="effect1_dropShadow_12_2"/>
<feBlend mode="normal" in="SourceGraphic" in2="effect1_dropShadow_12_2" result="shape"/>
</filter>
<linearGradient id="paint0_linear_12_2" x1="87" y1="0" x2="87" y2="40" gradientUnits="userSpaceOnUse">
<stop stop-color="#340909"/>
<stop offset="1" stop-color="#1F0505"/>
</linearGradient>
</defs>
</svg>
